:SAMPLES-PER-SECOND 30
:FULLY-SPECIFIED
:DEGREES
881
root  -11.9464 33.8554 -18.9071 -165.122 33.0213 -174.893
RightUpLeg  -36.1834 -12.667 12.9851
RightLeg  18.8096 -4.74729 -1.28238
RightFoot  6.82332 0.065294 -0.48288
RightToes  -27.1482 -0.124784 -0.231665
Spine  -0.867936 -1.63443 -1.81647
Spine1  -1.55833 -3.41813 -2.83811
HEad  -46.3063 -7.172 7.05221
LeftShoulder1  -1.94126e-019 -3.10601e-018 -2.51263e-017
LeftArm  -20.3585 7.44797 -60.3524
LeftForeArm  26.2936 -41.5306 -8.21399
LeftHand  -0.502989 -0.180128 10.5692
RightShoulder  -4.96962e-017 0 -2.36833e-017
RightArm  -29.2413 -37.1781 86.0861
RightForeArm  52.2693 14.6973 1.235
RightHand  -0.325288 1.04883 -5.98685
LeftUpLeg  -9.6515 7.53525 3.4732
LeftLeg  23.0994 16.2179 5.61943
LeftFoot  -10.8982 -0.321213 -3.20476
LeftToes  -11.4912 1.87998e-006 4.79886e-008
882
root  -11.6342 33.6617 -19.5713 -164.971 32.5279 -174.97
RightUpLeg  -37.5241 -12.6233 13.4757
RightLeg  17.3153 -4.96998 -1.20372
RightFoot  7.64712 0.0779877 -0.603093
RightToes  -28.2314 -0.126909 -0.233975
Spine  -0.831038 -1.94204 -1.42085
Spine1  -1.46454 -4.12731 -1.97844
HEad  -46.9702 -7.48873 7.35745
LeftShoulder1  -1.94126e-019 -3.10601e-018 -2.51263e-017
LeftArm  -19.6681 9.61624 -62.9264
LeftForeArm  26.1812 -39.0017 -7.44521
LeftHand  -0.49072 -0.190139 10.2956
RightShoulder  -4.96962e-017 0 -2.36833e-017
RightArm  -30.6915 -37.6227 85.7202
RightForeArm  58.2758 13.5331 1.29734
RightHand  -0.395817 1.42946 -6.88547
LeftUpLeg  -9.41169 6.71416 3.35797
LeftLeg  24.6411 16.668 6.26637
LeftFoot  -12.2725 -0.422774 -3.76937
LeftToes  -10.8007 1.87998e-006 4.79886e-008
883
root  -11.2455 33.4788 -20.3335 -164.984 32.1518 -175.319
RightUpLeg  -38.6053 -13.7848 14.0855
RightLeg  16.0149 -4.76676 -1.04044
RightFoot  7.76891 0.0795527 -0.607984
RightToes  -28.2945 -0.130866 -0.238301
Spine  -0.843602 -2.29841 -1.05648
Spine1  -1.48457 -4.95096 -1.16728
HEad  -47.3439 -7.6073 7.40858
LeftShoulder1  -1.94126e-019 -3.10601e-018 -2.51263e-017
LeftArm  -18.6506 12.6134 -65.5554
LeftForeArm  26.9733 -36.0166 -6.55217
LeftHand  -0.476512 -0.64945 9.27665
RightShoulder  -4.96962e-017 0 -2.36833e-017
RightArm  -34.8298 -38.1638 85.2432
RightForeArm  61.3154 12.7017 1.38842
RightHand  -0.421227 1.43466 -7.31284
LeftUpLeg  -8.67644 5.91958 3.01406
LeftLeg  25.6131 17.2807 6.81673
LeftFoot  -12.8741 -0.486152 -4.14543
LeftToes  -11.4067 1.87998e-006 4.79886e-008
884
root  -10.7588 33.3072 -21.2041 -165.294 31.9823 -175.968
RightUpLeg  -39.1915 -15.9608 14.7435
RightLeg  15.0341 -4.89651 -0.98097
RightFoot  7.34445 0.0760561 -0.619481
RightToes  -28.2845 -0.132288 -0.239868
Spine  -0.939563 -2.67052 -0.804525
Spine1  -1.6725 -5.84869 -0.561671
HEad  -47.2023 -7.98723 7.63603
LeftShoulder1  -1.94126e-019 -3.10601e-018 -2.51263e-017
LeftArm  -18.8096 16.4816 -68.2188
LeftForeArm  29.7566 -32.5087 -5.51275
LeftHand  -0.416457 -1.79838 6.90708
RightShoulder  -4.96962e-017 0 -2.36833e-017
RightArm  -39.672 -39.005 84.6733
RightForeArm  59.026 12.3429 1.43918
RightHand  -0.412295 1.09618 -7.50587
LeftUpLeg  -7.26952 5.77715 2.56621
LeftLeg  25.948 17.3728 6.96642
LeftFoot  -12.6218 -0.471297 -4.09801
LeftToes  -14.1775 1.87998e-006 4.79886e-008
885
root  -10.1411 33.1332 -22.1723 -165.717 32.0675 -176.533
RightUpLeg  -38.9639 -18.1816 15.2366
RightLeg  14.4146 -5.6911 -1.07561
RightFoot  6.75293 0.0746843 -0.694404
RightToes  -27.5144 -0.127185 -0.234325
Spine  -1.12908 -2.9862 -0.568486
Spine1  -2.0551 -6.64634 0.00763681
HEad  -46.6709 -8.36473 7.77718
LeftShoulder1  -1.94126e-019 -3.10601e-018 -2.51263e-017
LeftArm  -20.5924 20.828 -70.8975
LeftForeArm  32.3329 -28.1467 -4.70434
LeftHand  -0.380938 -2.60696 5.74895
RightShoulder  -4.96962e-017 0 -2.36833e-017
RightArm  -43.4225 -40.1497 83.8052
RightForeArm  56.2249 12.1416 1.46985
RightHand  -0.504068 1.31872 -8.86168
LeftUpLeg  -5.38316 5.82897 2.36771
LeftLeg  26.185 17.2682 7.00714
LeftFoot  -11.5855 -0.396432 -3.74463
LeftToes  -19.6924 1.87998e-006 4.79886e-008
886
root  -9.41178 32.9781 -23.1296 -165.307 32.4178 -176.065
RightUpLeg  -39.0327 -20.0195 16.64
RightLeg  15.8592 -6.64631 -1.42963
RightFoot  9.24266 0.14178 -1.17458
RightToes  -21.4743 -0.0898289 -0.188569
Spine  -1.47738 -3.09645 -0.0236024
Spine1  -2.81287 -7.01071 1.16269
HEad  -46.1758 -8.71148 7.70904
LeftShoulder1  -1.94126e-019 -3.10601e-018 -2.51263e-017
LeftArm  -23.7469 25.325 -73.8354
LeftForeArm  32.7883 -22.9885 -4.00996
LeftHand  -0.388009 -2.66831 5.81145
RightShoulder  -4.96962e-017 0 -2.36833e-017
RightArm  -43.9226 -41.4586 82.1636
RightForeArm  55.007 12.6375 1.434
RightHand  -0.383522 0.634377 -7.48484
LeftUpLeg  -4.09893 6.41156 3.21963
LeftLeg  27.3344 16.8133 7.21633
LeftFoot  -10.0981 -0.297796 -3.20806
LeftToes  -27.3571 1.87998e-006 4.79886e-008
887
root  -8.58934 32.8522 -24.0605 -164.495 33.0977 -175.164
RightUpLeg  -39.2434 -19.2622 17.1576
RightLeg  19.4835 -7.00424 -1.97674
RightFoot  7.2033 0.101421 -1.02705
RightToes  -11.2175 -0.038093 -0.10274
Spine  -1.88056 -2.937 0.657051
Spine1  -3.71761 -6.79903 2.54531
HEad  -45.8237 -9.27974 7.48666
LeftShoulder1  -1.94126e-019 -3.10601e-018 -2.51263e-017
LeftArm  -28.4489 29.4396 -77.0751
LeftForeArm  32.0343 -16.8686 -3.01431
LeftHand  -0.402332 -1.6539 6.80436
RightShoulder  -4.96962e-017 0 -2.36833e-017
RightArm  -43.146 -42.5544 79.9562
RightForeArm  56.0201 12.9118 1.39675
RightHand  -0.360383 0.273912 -7.45217
LeftUpLeg  -3.64659 7.69822 4.67611
LeftLeg  29.8746 15.758 7.60467
LeftFoot  -7.14716 -0.146441 -2.18298
LeftToes  -40.6024 1.87998e-006 4.79886e-008
888
root  -7.71074 32.8192 -24.9639 -163.273 34.5632 -173.626
RightUpLeg  -39.2759 -14.3285 16.1224
RightLeg  24.9222 -9.61948 -3.71833
RightFoot  4.18739 0.0537135 -0.864753
RightToes  -9.9004 -0.0325873 -0.0910888
Spine  -2.1252 -2.47813 1.41109
Spine1  -4.31733 -5.9329 4.00468
HEad  -45.621 -9.53646 7.17613
LeftShoulder1  -1.94126e-019 -3.10601e-018 -2.51263e-017
LeftArm  -34.9913 32.815 -80.3649
LeftForeArm  31.5482 -10.1709 -1.78914
LeftHand  -0.434152 -0.792052 8.27751
RightShoulder  -4.96962e-017 0 -2.36833e-017
RightArm  -41.9093 -42.179 77.0452
RightForeArm  59.0626 12.5345 1.41645
RightHand  -0.527573 1.82896 -8.6514
LeftUpLeg  -4.24082 9.96552 6.68628
LeftLeg  34.3584 14.1807 8.26342
LeftFoot  -2.29516 -0.0172175 -0.697932
LeftToes  -56.1791 1.87998e-006 4.79886e-008
889
root  -6.79971 32.8668 -25.8783 -162.963 35.6576 -172.399
RightUpLeg  -37.3832 -12.7588 16.3133
RightLeg  26.8745 -10.0868 -4.29464
RightFoot  1.79342 0.0159559 -0.408301
RightToes  -8.02615 -0.0305681 -0.0742986
Spine  -2.15171 -2.05976 2.06737
Spine1  -4.39932 -4.92254 5.18787
HEad  -45.1717 -9.3435 6.62884
LeftShoulder1  -1.94126e-019 -3.10601e-018 -2.51263e-017
LeftArm  -40.0347 36.3292 -83.4084
LeftForeArm  29.6574 -6.17197 -1.07323
LeftHand  -0.4278 0.43841 10.0637
RightShoulder  -4.96962e-017 0 -2.36833e-017
RightArm  -41.3819 -40.9786 73.9992
RightForeArm  62.1662 11.8484 1.47453
RightHand  -0.483779 1.70226 -8.08069
LeftUpLeg  -5.41442 12.2111 8.85358
LeftLeg  40.5358 11.9217 8.79541
LeftFoot  5.31581 -0.0536495 1.31719
LeftToes  -69.5196 1.87998e-006 4.79886e-008
890
root  -5.9544 32.9829 -26.729 -163.541 35.4865 -172.514
RightUpLeg  -34.685 -13.0033 15.9049
RightLeg  26.6351 -10.2282 -4.30372
RightFoot  -0.525893 -0.00233473 0.0754979
RightToes  -7.50827 -0.0297631 -0.0696175
Spine  -2.14853 -1.80004 2.32092
Spine1  -4.3273 -4.27416 5.57332
HEad  -44.7175 -10.5299 6.82428
LeftShoulder1  -1.94126e-019 -3.10601e-018 -2.51263e-017
LeftArm  -40.4207 38.5905 -85.0909
LeftForeArm  28.1188 -3.94089 -0.682044
LeftHand  -0.396644 1.14866 10.8193
RightShoulder  -4.96962e-017 0 -2.36833e-017
RightArm  -41.3038 -39.8958 72.2811
RightForeArm  61.0851 11.8833 1.47622
RightHand  -0.365847 0.445974 -7.35704
LeftUpLeg  -8.30687 12.1253 9.81123
LeftLeg  48.2027 9.78196 9.47708
LeftFoot  14.6948 -0.416629 3.39178
LeftToes  -67.6067 1.87998e-006 4.79886e-008
891
root  -5.23718 33.1696 -27.5197 -164.383 35.0051 -173.082
RightUpLeg  -32.3141 -13.6481 15.1396
RightLeg  26.4991 -10.3293 -4.31687
RightFoot  -2.1783 -0.00353366 0.41304
RightToes  -7.5312 -0.029886 -0.0698252
Spine  -1.98245 -1.41558 2.44349
Spine1  -3.93187 -3.44096 5.69311
HEad  -44.48 -12.7315 7.11758
LeftShoulder1  -1.94126e-019 -3.10601e-018 -2.51263e-017
LeftArm  -39.5645 39.0364 -85.9662
LeftForeArm  28.9131 -1.88926 -0.324489
LeftHand  -0.342301 1.16465 9.35344
RightShoulder  -4.96962e-017 0 -2.36833e-017
RightArm  -41.743 -38.0518 70.9084
RightForeArm  59.8099 11.9871 1.46869
RightHand  -0.470611 1.21775 -8.40185
LeftUpLeg  -12.513 10.9118 9.62586
LeftLeg  56.3205 8.87097 11.4081
LeftFoot  23.5767 -1.1681 5.75436
LeftToes  -51.9426 1.87998e-006 4.79886e-008
